<svg width="345" height="658" viewBox="0 0 345 658" fill="none" xmlns="http://www.w3.org/2000/svg">
<path fill-rule="evenodd" clip-rule="evenodd" d="M322.56 0.80661C317.102 0.973276 311.919 3.29621 308.112 7.28581L7.08533 313.926C3.14786 317.941 0.934265 323.389 0.934265 329.071C0.934265 334.753 3.14786 340.201 7.08533 344.217L308.112 651.15C312.008 655.358 317.409 657.78 323.085 657.863C328.762 657.947 334.231 655.686 338.247 651.593C342.257 647.499 344.481 641.926 344.398 636.134C344.314 630.348 341.939 624.842 337.809 620.869L51.6359 329.082L337.809 37.5886V37.5834C341.887 33.5522 344.184 28.0053 344.184 22.2194C344.184 16.4277 341.887 10.8809 337.814 6.85007C333.736 2.81367 328.236 0.631269 322.56 0.803136L322.56 0.80661Z" fill="#79797B"/>
</svg>
