<svg width="345" height="658" viewBox="0 0 345 658" fill="none" xmlns="http://www.w3.org/2000/svg">
<path fill-rule="evenodd" clip-rule="evenodd" d="M22.7733 0.806692C28.2317 0.973359 33.414 3.29629 37.2213 7.28589L338.248 313.926C342.185 317.947 344.399 323.395 344.399 329.071C344.399 334.754 342.185 340.202 338.248 344.217L37.2213 651.15C33.3255 655.364 27.9244 657.785 22.248 657.869C16.5709 657.952 11.1021 655.686 7.08667 651.598C3.07627 647.504 0.852277 641.926 0.93561 636.139C1.01894 630.353 3.394 624.842 7.52413 620.869L293.697 329.082L7.52413 37.5886C3.446 33.5522 1.14919 28.0104 1.14919 22.2192C1.14919 16.428 3.44614 10.8859 7.51894 6.8499C11.5971 2.81869 17.0971 0.636292 22.7736 0.802959L22.7733 0.806692Z" fill="#79797B"/>
</svg>
